<?xml version="1.0" encoding="UTF-8"?>
<!DOCTYPE svg PUBLIC "-//W3C//DTD SVG 1.1//EN" "http://www.w3.org/Graphics/SVG/1.1/DTD/svg11.dtd">
<!-- Creator: CorelDRAW 2019 (64-Bit) -->
<svg xmlns="http://www.w3.org/2000/svg" xml:space="preserve" width="1464px" height="480px" version="1.1" style="shape-rendering:geometricPrecision; text-rendering:geometricPrecision; image-rendering:optimizeQuality; fill-rule:evenodd; clip-rule:evenodd"
viewBox="0 0 1464 480.02"
 xmlns:xlink="http://www.w3.org/1999/xlink"
 xmlns:xodm="http://www.corel.com/coreldraw/odm/2003">
 <defs>
  <style type="text/css">
   <![CDATA[
    .fil2 {fill:#F3C800;fill-rule:nonzero}
    .fil1 {fill:#DB3537;fill-rule:nonzero}
    .fil0 {fill:#5E81C0;fill-rule:nonzero}
    .fil3 {fill:#41B04E;fill-rule:nonzero}
   ]]>
  </style>
 </defs>
 <g id="Layer_x0020_1">
  <metadata id="CorelCorpID_0Corel-Layer"/>
  <path class="fil0" d="M359.93 169.52l-170.82 0 0 50.69 121.15 0c-5.99,71.09 -65.13,101.4 -120.95,101.4 -71.42,0 -133.74,-56.2 -133.74,-134.96 0,-76.72 59.41,-135.82 133.9,-135.82 57.47,0 91.33,36.64 91.33,36.64l35.5 -36.75c0,0 -45.56,-50.72 -128.65,-50.72 -105.8,0 -187.65,89.29 -187.65,185.75 0,94.51 76.99,186.67 190.35,186.67 99.7,0 172.68,-68.3 172.68,-169.29 0,-21.31 -3.1,-33.62 -3.1,-33.62l0 0.01z"/>
  <path class="fil1" d="M500.57 179.82c34.47,0 67.13,27.87 67.13,72.78 0,43.95 -32.52,72.61 -67.29,72.61 -38.2,0 -68.34,-30.59 -68.34,-72.96 0,-41.46 29.76,-72.43 68.5,-72.43l0 0zm-0.7 -47.01c-70.09,0 -120.33,54.8 -120.33,118.71 0,64.86 48.73,120.68 121.16,120.68 65.56,0 119.28,-50.12 119.28,-119.28 0,-79.28 -62.48,-120.11 -120.11,-120.11l0 0z"/>
  <path class="fil2" d="M762.27 179.82c34.47,0 67.14,27.87 67.14,72.78 0,43.95 -32.53,72.61 -67.3,72.61 -38.2,0 -68.34,-30.59 -68.34,-72.96 0,-41.46 29.77,-72.43 68.5,-72.43l0 0zm-0.69 -47.01c-70.1,0 -120.34,54.8 -120.34,118.71 0,64.86 48.73,120.68 121.16,120.68 65.56,0 119.28,-50.12 119.28,-119.28 0,-79.28 -62.48,-120.11 -120.1,-120.11l0 0z"/>
  <path class="fil0" d="M1022.92 179.85c31.55,0 63.94,26.94 63.94,72.94 0,46.75 -32.32,72.52 -64.63,72.52 -34.3,0 -66.22,-27.85 -66.22,-72.08 0,-45.95 33.14,-73.38 66.91,-73.38l0 0zm-4.66 -46.92c-64.34,0 -114.91,56.36 -114.91,119.6 0,72.05 58.63,119.83 113.81,119.83 34.11,0 52.25,-13.54 65.64,-29.08l0 23.6c0,41.29 -25.07,66.02 -62.92,66.02 -36.56,0 -54.9,-27.18 -61.27,-42.61l-46 19.23c16.31,34.51 49.17,70.5 107.65,70.5 63.97,0 112.73,-40.3 112.73,-124.8l0 -215.09 -50.19 0 0 20.28c-15.43,-16.63 -36.53,-27.47 -64.54,-27.47l0 -0.01z"/>
  <path class="fil1" d="M1358.22 178.68c21.87,0 37.6,11.63 44.29,25.57l-107.18 44.8c-4.62,-34.68 28.23,-70.37 62.89,-70.37l0 0zm-2.09 -46.03c-60.7,0 -111.65,48.29 -111.65,119.54 0,75.39 56.8,120.1 117.48,120.1 50.64,0 81.72,-27.7 100.28,-52.53l-41.38 -27.53c-10.74,16.67 -28.69,32.95 -58.65,32.95 -33.65,0 -49.12,-18.42 -58.71,-36.27l160.5 -66.6 -8.33 -19.52c-15.51,-38.22 -51.67,-70.13 -99.54,-70.13l0 -0.01z"/>
  <polygon class="fil3" points="1167.96,365.19 1220.68,365.19 1220.68,12.38 1167.96,12.38 "/>
 </g>
</svg>
